HIERARCHY
ROOT root
{
	OFFSET	0	13.1	24.9
	CHANNELS 6  Xposition Yposition Zposition Xrotation Yrotation Zrotation
	JOINT spine_1
	{
		OFFSET	0	9.99999	0
		CHANNELS 3  Xrotation Yrotation Zrotation
		JOINT spine_2
		{
			OFFSET	0	112	-10
			CHANNELS 3  Xrotation Yrotation Zrotation
			JOINT spine_3
			{
				OFFSET	0	206.5	19.3
				CHANNELS 3  Xrotation Yrotation Zrotation
				JOINT spine_4
				{
					OFFSET	0	110.4	14.6
					CHANNELS 3  Xrotation Yrotation Zrotation
					JOINT neck_1
					{
						OFFSET	0	71.8	-50.3
						CHANNELS 3  Xrotation Yrotation Zrotation
						JOINT neck_2
						{
							OFFSET	0	86.2	-25.8
							CHANNELS 3  Xrotation Yrotation Zrotation
							JOINT head_ee
							{
								OFFSET	0	179.8	-8.7
								CHANNELS 3  Xrotation Yrotation Zrotation
								End Site
								{
									OFFSET	1	0	0
								}
							}
						}
					}
					JOINT left_clavicle
					{
						OFFSET	-43.2	22.4	-70.8
						CHANNELS 3  Xrotation Yrotation Zrotation
						JOINT left_shoulder
						{
							OFFSET	-93.9	-5.79999	48.7
							CHANNELS 3  Xrotation Yrotation Zrotation
							JOINT left_elbow
							{
								OFFSET	-291.4	-30.8	15.2
								CHANNELS 3  Xrotation Yrotation Zrotation
								JOINT left_lowarm_twist
								{
									OFFSET	-110.7	-3.89999	13.6
									CHANNELS 3  Xrotation Yrotation Zrotation
									JOINT left_hand
									{
										OFFSET	-110.7	-3.89999	13.6
										CHANNELS 3  Xrotation Yrotation Zrotation
										JOINT left_ee
										{
											OFFSET	-80.8	-5.10001	12.1
											CHANNELS 3  Xrotation Yrotation Zrotation
											End Site
											{
												OFFSET	1	0	0
											}
										}
									}
								}
							}
						}
					}
					JOINT right_clavicle
					{
						OFFSET	43.2	22.4	-70.8
						CHANNELS 3  Xrotation Yrotation Zrotation
						JOINT right_shoulder
						{
							OFFSET	93.9	-5.79999	48.7
							CHANNELS 3  Xrotation Yrotation Zrotation
							JOINT right_elbow
							{
								OFFSET	291.4	-30.8	15.2
								CHANNELS 3  Xrotation Yrotation Zrotation
								JOINT right_lowarm_twist
								{
									OFFSET	110.7	-3.89999	13.6
									CHANNELS 3  Xrotation Yrotation Zrotation
									JOINT right_hand
									{
										OFFSET	110.7	-3.89999	13.6
										CHANNELS 3  Xrotation Yrotation Zrotation
										JOINT right_ee
										{
											OFFSET	80.8	-5.10001	12.1
											CHANNELS 3  Xrotation Yrotation Zrotation
											End Site
											{
												OFFSET	1	0	0
											}
										}
									}
								}
							}
						}
					}
				}
			}
		}
	}
	JOINT left_hip
	{
		OFFSET	-82.8	-127.5	0.300001
		CHANNELS 3  Xrotation Yrotation Zrotation
		JOINT left_knee
		{
			OFFSET	-28.2	-396.7	2.2
			CHANNELS 3  Xrotation Yrotation Zrotation
			JOINT left_ankle
			{
				OFFSET	-11.7	-411.3	35.4
				CHANNELS 3  Xrotation Yrotation Zrotation
				JOINT left_toes
				{
					OFFSET	0	-60	-88.6
					CHANNELS 3  Xrotation Yrotation Zrotation
					JOINT left_foot_ee
					{
						OFFSET	-22.5	-16.5	-42.2
						CHANNELS 3  Xrotation Yrotation Zrotation
						End Site
						{
							OFFSET	1	0	0
						}
					}
				}
			}
		}
	}
	JOINT right_hip
	{
		OFFSET	82.8	-127.5	0.300001
		CHANNELS 3  Xrotation Yrotation Zrotation
		JOINT right_knee
		{
			OFFSET	28.2	-396.7	2.2
			CHANNELS 3  Xrotation Yrotation Zrotation
			JOINT right_ankle
			{
				OFFSET	11.7	-411.3	35.4
				CHANNELS 3  Xrotation Yrotation Zrotation
				JOINT right_toes
				{
					OFFSET	0	-60	-88.6
					CHANNELS 3  Xrotation Yrotation Zrotation
					JOINT right_foot_ee
					{
						OFFSET	22.5	-16.5	-42.2
						CHANNELS 3  Xrotation Yrotation Zrotation
						End Site
						{
							OFFSET	1	0	0
						}
					}
				}
			}
		}
	}
}
MOTION
Frames: 11
Frame Time: 0.02
875.306 716.586 -1438.74 -28.5546 82.3444 27.5456 2.95669 0.124733 1.13775 2.95741 0.0520874 1.14338 2.95824 -0.130894 1.13705 2.95644 0.0503135 1.14346 -15.8462 6.6786 -0.398259 -16.0107 13.0272 1.95713 -0.0 0.0 -0.0 -1.0718 7.59015 -1.0062 -27.2866 -32.2477 68.5231 0.479576 -13.3641 0.0561853 -30.8297 -2.03281 3.32735 4.12328 9.85703 32.4141 -0.0 0.0 -0.0 10.2045 12.3883 -20.2371 -13.3459 21.2337 -53.2964 2.09013 45.9905 -0.887083 -4.97898 0.201814 -0.60341 0.172053 -15.8678 -7.54854 0.0 0.0 0.0 26.7236 -5.04603 -0.2128 -5.55765 0.1886 0.831751 28.8803 -5.6473 -3.84952 -12.374 0.0 0.0 -0.0 0.0 -0.0 -5.50495 -3.415 -2.68156 -3.59666 -0.131287 -0.536272 28.6125 3.32371 3.79083 5.2964 -0.0 -0.0 0.0 0.0 0.0 
854.964 718.393 -1427.13 -28.5967 82.7756 26.8626 3.03505 0.0904908 1.3468 3.03606 0.00461519 1.34983 3.03583 -0.208893 1.33357 3.03335 0.00432224 1.34983 -15.5322 6.87691 -1.78559 -15.7138 14.2094 0.686582 -0.0 0.0 -0.0 -0.899983 7.02688 -0.777695 -26.7194 -32.325 68.5487 0.485689 -13.5282 0.0576066 -30.1571 -1.97027 3.26795 4.35766 8.74274 33.8885 -0.0 0.0 -0.0 10.0797 13.2337 -19.9363 -15.5076 19.2255 -53.3048 2.02312 45.0576 -0.839266 -4.10359 0.162537 -0.498608 0.140039 -11.747 -5.73881 0.0 0.0 0.0 26.222 -5.3245 -0.282249 -5.20824 0.179129 0.778965 29.2753 -10.2122 -3.97126 -12.8314 0.0 0.0 -0.0 0.0 -0.0 -6.45903 -6.17561 -3.1937 -3.78671 -0.137284 -0.564823 31.3361 2.22023 4.07068 5.60881 -0.0 -0.0 0.0 0.0 0.0 
836.028 720.564 -1424.41 -29.3239 83.1232 27.618 3.08591 0.0557657 1.18348 3.08669 -0.01965 1.18463 3.08602 -0.205706 1.1668 3.08412 -0.0188626 1.18465 -14.358 7.10903 -1.41938 -14.5203 14.4302 0.960006 -0.0 0.0 -0.0 -0.775751 6.40133 -0.63934 -26.0765 -32.6481 68.66 0.499161 -13.8891 0.0607994 -30.4376 -1.99627 3.29281 4.16102 8.9202 32.4027 -0.0 0.0 -0.0 10.1773 13.8285 -20.1327 -17.4063 18.5203 -54.2354 1.94107 43.8723 -0.781791 -4.42459 0.176753 -0.537107 0.143322 -14.7459 -6.93632 0.0 0.0 0.0 25.4174 -5.5173 0.255238 -6.6719 0.216646 1.00044 30.4465 -8.71331 -4.06985 -11.8221 0.0 0.0 -0.0 0.0 -0.0 -7.31113 -5.95263 -3.04494 -3.82552 -0.138496 -0.570655 30.3878 3.14273 3.98069 4.92116 -0.0 -0.0 0.0 0.0 0.0 
819.468 722.614 -1422.28 -35.2545 84.8468 34.0544 3.12379 -0.187701 1.03868 3.12436 -0.253411 1.02463 3.11959 -0.410853 0.972265 3.11836 -0.252155 1.02494 -14.5923 7.49859 -1.75242 -14.7816 15.3761 0.807898 -0.0 0.0 -0.0 -0.631451 5.55188 -0.490642 -25.2749 -33.2839 68.6458 0.524981 -14.5776 0.0671479 -30.7675 -2.02699 3.32188 4.1795 9.35924 32.6904 -0.0 0.0 -0.0 10.1813 14.2008 -20.1281 -18.9502 17.5074 -54.7025 1.85186 42.5277 -0.720715 -4.29216 0.170862 -0.521234 0.18645 -14.7705 -7.21578 0.0 0.0 0.0 24.6551 -5.73998 0.864691 -5.22337 0.179546 0.78125 30.5236 -8.6949 -4.0778 -11.8551 0.0 0.0 -0.0 0.0 -0.0 -7.13129 -5.47617 -3.1432 -3.95389 -0.142481 -0.589954 32.5907 3.70825 4.21679 5.4875 -0.0 -0.0 0.0 0.0 0.0 
801.945 728.964 -1416.64 -41.907 85.6557 40.7992 3.17763 -0.0868666 1.00087 3.17818 -0.150375 0.993316 3.17535 -0.303235 0.957781 3.1741 -0.148174 0.993647 -13.552 7.62005 -2.02448 -13.7186 15.766 0.443629 -0.0 0.0 -0.0 -0.46632 4.80413 -0.285439 -24.3324 -33.3493 68.7856 0.558935 -15.4765 0.0759517 -30.2179 -1.9759 3.27335 4.1499 9.02035 32.3492 -0.0 0.0 -0.0 10.3692 14.3196 -20.5419 -21.1375 16.4562 -55.9384 1.59285 38.2725 -0.552734 -4.43392 0.17717 -0.538225 0.191775 -14.9615 -7.32285 0.0 0.0 0.0 22.5893 -6.07225 1.21248 -6.08759 0.202348 0.911915 30.4802 -8.72026 -4.07361 -11.9387 0.0 0.0 -0.0 0.0 -0.0 -7.29151 -5.50379 -3.26016 -4.31441 -0.153438 -0.644197 34.2874 3.73506 4.3871 5.90169 -0.0 -0.0 0.0 0.0 0.0 
785.567 730.264 -1414.46 -47.528 86.3863 46.6403 3.21934 -0.15686 0.912706 3.21978 -0.214618 0.900877 3.21622 -0.351689 0.856715 3.21526 -0.211979 0.901501 -12.9362 7.6174 -2.4547 -13.0846 16.0248 -0.0556647 -0.0 0.0 -0.0 -0.380859 3.89268 -0.243558 -23.0308 -33.6234 68.4656 0.603731 -16.6505 0.0883475 -29.8127 -1.93851 3.23725 4.1346 8.79412 32.1558 -0.0 0.0 -0.0 10.4108 14.4399 -20.6302 -22.8272 15.3588 -56.449 1.38956 34.5396 -0.432016 -4.41905 0.176506 -0.536444 0.228146 -15.0489 -7.58391 0.0 0.0 0.0 21.4902 -6.47964 1.65467 -7.10363 0.226631 1.06595 30.3004 -8.83807 -4.05644 -12.0117 0.0 0.0 -0.0 0.0 -0.0 -8.3193 -5.39891 -3.37555 -5.96423 -0.199214 -0.893244 35.1777 3.39086 4.46958 6.08177 -0.0 -0.0 0.0 0.0 0.0 
767.697 732.903 -1409.09 -90.0001 88.6664 90.0001 2.66373 -0.153802 0.45555 2.66383 -0.182477 0.444841 2.66237 -0.253189 0.408751 2.66219 -0.185457 0.443607 -13.2851 6.93806 -2.14866 -13.4162 14.543 0.0726137 -0.0 0.0 -0.0 -0.0705908 3.20432 0.249456 -22.696 -35.127 67.3582 0.849939 -22.8326 0.171632 -30.3053 -1.98399 3.2811 3.81653 10.6885 30.3341 -0.0 0.0 -0.0 10.4021 14.5773 -20.6056 -24.3723 14.1808 -56.6036 1.15184 29.7076 -0.305496 -2.99705 0.115193 -0.365307 0.091782 -15.7116 -6.98959 0.0 0.0 0.0 18.3673 -15.4109 4.17354 -7.81566 0.242017 1.17413 28.3305 -5.7118 -3.78971 -13.4702 0.0 0.0 -0.0 0.0 -0.0 -9.02834 -5.22271 -3.11598 -11.15 -0.296127 -1.68284 38.1505 3.5666 4.74903 7.25531 -0.0 -0.0 0.0 0.0 0.0 
750.25 736.742 -1406.0 158.965 86.9112 -159.794 1.99566 -0.0575236 0.346649 1.99572 -0.0794651 0.342286 1.99523 -0.138472 0.322955 1.9951 -0.08573 0.340771 -13.4937 6.45985 -0.840671 -13.6073 12.8253 1.19236 -0.0 0.0 -0.0 0.224318 0.562396 0.497145 -20.9786 -36.4 66.6671 1.02943 -27.0185 0.247326 -30.5558 -2.00726 3.30324 3.21156 12.2134 26.3656 -0.0 0.0 -0.0 10.2246 15.1845 -20.1849 -24.9999 13.2712 -57.6689 0.913185 24.34 -0.196941 -1.00543 0.0365086 -0.123206 0.350392 -15.0656 -8.35556 0.0 0.0 0.0 16.3604 -24.7454 5.44222 -8.73631 0.259916 1.31427 27.6496 1.20232 -3.6465 -15.2918 0.0 0.0 -0.0 0.0 -0.0 -9.39667 -5.34756 -2.91489 -16.1318 -0.321642 -2.44654 38.5514 2.16449 4.76862 6.79173 -0.0 -0.0 0.0 0.0 0.0 
738.531 737.074 -1402.27 160.032 84.3014 -160.314 1.44433 -0.186216 0.127131 1.44432 -0.193929 0.115024 1.44392 -0.211898 0.0770588 1.44396 -0.197069 0.109557 -13.1918 6.34594 -0.865868 -13.296 12.6176 1.09854 -0.0 0.0 -0.0 0.549396 -0.894954 0.960756 -19.3271 -37.5522 65.3839 1.21169 -30.9726 0.335732 -30.5286 -2.00472 3.30084 3.30646 12.2916 27.0717 -0.0 0.0 -0.0 10.2007 14.8952 -20.144 -25.6152 12.5336 -57.8121 0.771483 20.9153 -0.142398 -0.951568 0.0344985 -0.116622 0.106597 -16.3166 -7.31522 0.0 0.0 0.0 14.9543 -27.2431 5.72307 -9.55154 0.273883 1.43858 27.0357 -1.68448 -3.59906 -15.2459 0.0 0.0 -0.0 0.0 -0.0 -9.22304 -5.17874 -2.45551 -18.3671 -0.311498 -2.78932 39.6641 3.77133 4.88537 7.76249 -0.0 -0.0 0.0 0.0 0.0 
728.279 736.796 -1404.22 163.514 80.5787 -163.339 0.946906 -0.49091 0.0938153 0.946774 -0.495885 0.0623865 0.946195 -0.498566 -0.035003 0.946539 -0.497837 0.0441776 -12.7245 5.68784 -0.336081 -12.7985 11.0224 1.35453 -0.0 0.0 -0.0 0.861436 -5.10027 1.12386 -17.6474 -37.7695 64.6917 1.33569 -33.4895 0.401881 -29.6525 -1.92381 3.22291 3.16822 12.3759 26.1058 -0.0 0.0 -0.0 10.0399 15.4973 -19.7596 -27.0237 12.0759 -59.574 0.74096 20.1556 -0.131691 0.36095 -0.012578 0.0443823 0.245696 -16.3347 -8.18381 0.0 0.0 0.0 13.679 -30.4716 5.48477 -9.68189 0.275952 1.45848 24.3324 0.730693 -3.27074 -16.8388 0.0 0.0 -0.0 0.0 -0.0 -8.42583 -4.94712 -1.78218 -23.3273 -0.24131 -3.54696 39.8817 3.69581 4.90318 8.40031 -0.0 -0.0 0.0 0.0 0.0 
718.443 736.721 -1402.6 162.254 80.0649 -161.802 0.609461 -0.43991 -0.0120197 0.609354 -0.438254 -0.0399885 0.609636 -0.421433 -0.126727 0.609879 -0.436158 -0.058578 -13.2295 5.38076 -0.207474 -13.3011 10.3714 1.43187 -0.0 0.0 -0.0 1.03481 -6.38488 1.33846 -15.3264 -38.6665 63.7433 1.42111 -35.1426 0.45004 -30.6092 -2.01223 3.30795 2.7992 13.7771 23.938 -0.0 0.0 -0.0 9.7449 15.2354 -19.1164 -27.9325 11.6049 -60.6981 0.796271 21.5266 -0.151371 1.32173 -0.0446915 0.162892 0.448103 -16.3283 -9.4393 0.0 0.0 0.0 11.8512 -32.8367 5.33009 -8.4652 0.254879 1.27297 23.0289 2.90063 -3.10634 -17.2037 0.0 0.0 -0.0 0.0 -0.0 -6.91831 -6.04035 -1.26552 -26.0804 -0.174131 -3.96407 39.1457 2.60361 4.82596 8.48659 -0.0 -0.0 0.0 0.0 0.0 
